<svg width="22" height="23" viewBox="0 0 22 23" fill="none" xmlns="http://www.w3.org/2000/svg">
<path d="M18.153 8.153C18.153 9.09235 17.968 10.0225 17.6085 10.8903C17.249 11.7582 16.7221 12.5467 16.0579 13.2109C15.3937 13.8752 14.6052 14.402 13.7373 14.7615C12.8695 15.121 11.9393 15.306 11 15.306C10.0606 15.306 9.13049 15.121 8.26265 14.7615C7.39481 14.402 6.60627 13.8752 5.94205 13.2109C5.27783 12.5467 4.75095 11.7582 4.39147 10.8903C4.032 10.0225 3.84698 9.09235 3.84698 8.153C3.84698 6.25591 4.6006 4.43651 5.94205 3.09507C7.2835 1.75362 9.10289 1 11 1C12.8971 1 14.7165 1.75362 16.0579 3.09507C17.3994 4.43651 18.153 6.25591 18.153 8.153Z" stroke="black" stroke-width="1.5"/>
<path d="M4.89998 11.89L1.66998 17.484L5.38598 16.499L6.39098 20.209L9.33498 15.111M17.1 11.89L20.33 17.484L16.614 16.5L15.609 20.21L12.665 15.11M10.952 4.43697L12.219 6.60797L14.389 7.15097L12.942 8.77897L13.304 11.312L10.952 10.227L8.59998 11.311L8.96198 8.77797L7.51498 7.14997L9.68498 6.60697L10.952 4.43697Z" stroke="black" stroke-width="1.5"/>
</svg>
