<svg width="40" height="40" viewBox="0 0 40 40" fill="none" xmlns="http://www.w3.org/2000/svg">
<path d="M30 22.26V29.654H25.714V22.754C25.714 21.022 25.094 19.84 23.542 19.84C22.358 19.84 21.652 20.636 21.342 21.408C21.23 21.684 21.2 22.068 21.2 22.452V29.654H16.912C16.912 29.654 16.97 17.97 16.912 16.76H21.2V18.586L21.172 18.628H21.2V18.586C21.77 17.706 22.786 16.456 25.064 16.456C27.884 16.456 30 18.3 30 22.26ZM12.426 10.542C10.96 10.542 10 11.506 10 12.77C10 14.01 10.932 15 12.37 15H12.398C13.894 15 14.824 14.008 14.824 12.77C14.796 11.506 13.894 10.542 12.426 10.542ZM10.254 29.654H14.542V16.76H10.254V29.654Z" fill="#5F5F5F"/>
<path d="M20 36C24.2435 36 28.3131 34.3143 31.3137 31.3137C34.3143 28.3131 36 24.2435 36 20C36 15.7565 34.3143 11.6869 31.3137 8.68629C28.3131 5.68571 24.2435 4 20 4C15.7565 4 11.6869 5.68571 8.68629 8.68629C5.68571 11.6869 4 15.7565 4 20C4 24.2435 5.68571 28.3131 8.68629 31.3137C11.6869 34.3143 15.7565 36 20 36ZM20 40C8.954 40 0 31.046 0 20C0 8.954 8.954 0 20 0C31.046 0 40 8.954 40 20C40 31.046 31.046 40 20 40Z" fill="#5F5F5F"/>
</svg>
