<svg width="30" height="30" viewBox="0 0 30 30" fill="none" xmlns="http://www.w3.org/2000/svg">
<path d="M8.75 10.625L12.4275 12.8C14.5713 14.0675 15.4275 14.0675 17.5725 12.8L21.25 10.625" stroke="black" stroke-width="1.5" stroke-linecap="round" stroke-linejoin="round"/>
<path d="M2.52001 16.845C2.60126 20.6762 2.64251 22.5925 4.05626 24.0112C5.47001 25.4312 7.43751 25.48 11.3738 25.5787C13.7988 25.6412 16.2013 25.6412 18.6263 25.5787C22.5625 25.48 24.53 25.4312 25.9438 24.0112C27.3575 22.5925 27.3988 20.6762 27.4813 16.845C27.5063 15.6125 27.5063 14.3875 27.4813 13.155C27.3988 9.32373 27.3575 7.40748 25.9438 5.98873C24.53 4.56873 22.5625 4.51998 18.6263 4.42123C16.2091 4.36024 13.7909 4.36024 11.3738 4.42123C7.43751 4.51998 5.47001 4.56873 4.05626 5.98873C2.64251 7.40748 2.60126 9.32373 2.51876 13.155C2.49244 14.3848 2.49369 15.6151 2.52001 16.845Z" stroke="black" stroke-width="1.5" stroke-linecap="round" stroke-linejoin="round"/>
</svg>
